<?xml version="1.0" standalone="no"?>
<!DOCTYPE svg PUBLIC "-//W3C//DTD SVG 20010904//EN"
 "http://www.w3.org/TR/2001/REC-SVG-20010904/DTD/svg10.dtd">
<svg version="1.0" xmlns="http://www.w3.org/2000/svg"
 width="364.000000pt" height="364.000000pt" viewBox="0 0 364.000000 364.000000"
 preserveAspectRatio="xMidYMid meet">
<metadata>
Created by potrace 1.14, written by Peter Selinger 2001-2017
</metadata>
<g transform="translate(0.000000,364.000000) scale(0.100000,-0.100000)"
fill="#000000" stroke="none">
<path d="M1640 3343 c-272 -43 -490 -125 -700 -264 -123 -82 -333 -290 -417
-414 -209 -310 -307 -677 -274 -1033 64 -695 545 -1253 1220 -1416 428 -104
889 -18 1266 237 128 87 332 294 417 422 129 196 211 401 248 623 24 139 26
359 5 500 -105 695 -642 1232 -1337 1337 -89 14 -362 19 -428 8z m535 -937
c206 -58 340 -203 397 -432 31 -125 31 -391 0 -507 -56 -205 -169 -326 -357
-378 -76 -22 -101 -23 -482 -27 l-403 -3 0 686 0 687 393 -4 c329 -4 402 -7
452 -22z m-1112 -303 c46 -23 69 -70 64 -132 -3 -44 -9 -59 -31 -78 -53 -45
-123 -42 -181 8 -129 113 -6 281 148 202z m24 -495 c27 -27 36 -46 40 -82 11
-92 -38 -142 -127 -134 -63 6 -104 37 -126 94 -37 96 20 170 124 162 45 -4 59
-10 89 -40z"/>
<path d="M1752 2137 l-22 -25 2 -389 3 -388 126 1 c112 0 130 3 175 25 57 28
103 84 135 166 20 51 23 77 23 218 1 173 -11 238 -56 305 -49 73 -112 98 -263
106 -97 5 -101 5 -123 -19z"/>
</g>
</svg>
